<svg width="260" height="111" viewBox="0 0 260 111" fill="none" xmlns="http://www.w3.org/2000/svg">
<g clip-path="url(#clip0_1_40)">
<path d="M107.635 58.1364C107.635 58.1364 149.213 19.9305 133.146 101.028C133.146 101.028 156.025 55.6117 140.789 39.2449C129.23 26.8293 107.635 58.1364 107.635 58.1364Z" fill="#5DB3D6"/>
<path d="M125.796 36.0382C129.843 34.3703 131.772 29.7371 130.104 25.6898C128.436 21.6424 123.803 19.7134 119.756 21.3813C115.708 23.0493 113.779 27.6824 115.447 31.7298C117.115 35.7772 121.748 37.7061 125.796 36.0382Z" fill="#5DB3D6"/>
<path d="M124.17 86.0893C123.117 85.9004 122.052 85.782 121.012 85.5057C120.491 85.3761 119.958 85.2761 119.446 85.1266L117.903 84.6641C115.871 83.969 113.853 83.1695 111.965 82.1281L111.245 81.7528L110.548 81.335C110.086 81.0499 109.621 80.7747 109.166 80.4868C108.284 79.8584 107.369 79.2685 106.54 78.5692L105.904 78.0608C105.688 77.8956 105.477 77.7205 105.28 77.5396L104.065 76.4419C103.86 76.2639 103.667 76.0731 103.478 75.8724L102.909 75.2873C102.533 74.8929 102.14 74.5143 101.793 74.0915C96.0007 67.5531 92.6118 58.8523 92.4959 49.9992C92.4632 47.7916 92.6245 45.5778 92.9747 43.3845C93.3277 41.1982 93.8893 39.0407 94.6162 36.9463C96.0968 32.7627 98.3132 28.8332 101.133 25.3928C103.944 21.9314 107.43 19.0357 111.274 16.7879C115.122 14.5301 119.37 12.9845 123.754 12.1692C125.951 11.7721 128.184 11.5814 130.416 11.5878C132.648 11.5942 134.876 11.7906 137.07 12.1815C141.454 12.9564 145.712 14.4967 149.55 16.7506C153.388 19.0046 156.847 21.9069 159.668 25.3338C162.497 28.7577 164.709 32.6736 166.161 36.8535C167.618 41.0234 168.366 45.4442 168.283 49.8384C168.201 54.2326 167.346 58.6011 165.771 62.6759C164.177 66.7425 161.897 70.5178 159.024 73.7505C157.585 75.3683 156.016 76.8509 154.321 78.1885C152.621 79.512 150.822 80.6959 148.925 81.6823C150.729 80.5294 152.427 79.2396 154.002 77.8118C155.58 76.391 157.029 74.8351 158.326 73.1695C160.923 69.8454 162.953 66.0994 164.258 62.1273C166.949 54.1992 166.729 45.4302 163.763 37.7354C163.027 35.8095 162.112 33.9488 161.051 32.1895C159.997 30.4273 158.805 28.7468 157.471 27.1818C154.807 24.0587 151.566 21.4439 148.009 19.4347C140.898 15.3657 132.361 13.9008 124.325 15.3844C120.318 16.1015 116.401 17.4945 112.87 19.5477C109.324 21.5828 106.14 24.239 103.503 27.3665C100.853 30.4828 98.7503 34.0706 97.3043 37.9203C95.885 41.7754 95.1043 45.8672 95.0415 49.9911C94.9549 54.1165 95.6902 58.2476 97.0144 62.1769C97.1897 62.6619 97.3609 63.1569 97.5432 63.6391L98.152 65.0766C98.2571 65.3119 98.3512 65.56 98.4634 65.7925L98.8168 66.491C99.0551 66.9501 99.2824 67.422 99.5278 67.8782L100.32 69.2237C100.453 69.4475 100.579 69.6741 100.727 69.8921L101.165 70.5391C101.464 70.9652 101.744 71.407 102.057 71.8273L103.017 73.0628C103.322 73.486 103.685 73.8692 104.027 74.2611L104.541 74.8524C104.713 75.0518 104.883 75.2443 105.073 75.4281L106.181 76.5452C106.358 76.7347 106.559 76.9057 106.754 77.0796L107.345 77.5983C108.108 78.3165 108.967 78.9296 109.788 79.5909C110.211 79.9004 110.656 80.1842 111.085 80.4907L111.739 80.9427L112.416 81.3522C115.998 83.5807 120.002 85.1433 124.17 86.0893Z" fill="#5DB3D6"/>
<path d="M137.859 18.9122C142.804 20.1527 147.433 22.7938 151.201 26.3474C153.108 28.1105 154.764 30.1408 156.21 32.2986C157.646 34.4691 158.817 36.814 159.754 39.2472C161.598 44.1182 162.332 49.4215 161.813 54.5857C161.308 59.7442 159.534 64.7865 156.574 68.9404C158.813 64.3704 160.074 59.4334 160.285 54.4778C160.501 49.5122 159.656 44.5577 157.916 39.939C157.066 37.6174 155.964 35.3998 154.656 33.2998C153.369 31.191 151.819 29.2398 150.13 27.428C146.712 23.8286 142.538 20.9182 137.859 18.9122Z" fill="#99D3EB"/>
<path d="M119.369 80.1095C115.01 78.7011 110.977 76.134 107.688 72.826C106.027 71.1827 104.586 69.3176 103.316 67.3494C102.064 65.3656 101.043 63.2456 100.228 61.049C98.619 56.647 97.9673 51.8832 98.3707 47.2338C98.7671 42.5872 100.217 38.0311 102.687 34.1609C100.951 38.4006 100.001 42.8573 99.904 47.315C99.7998 51.7756 100.571 56.2116 102.082 60.3754C102.82 62.4645 103.787 64.4752 104.909 66.3816C106.02 68.3008 107.357 70.0938 108.807 71.7829C111.749 75.1437 115.333 77.9533 119.369 80.1095Z" fill="#99D3EB"/>
</g>
<path d="M18.8389 102.764C18.8389 104.935 17.9164 106.701 16.0715 108.062C14.2364 109.414 11.7404 110.09 8.5833 110.09C6.75811 110.09 5.16478 109.932 3.80329 109.616C2.45167 109.29 1.1839 108.881 0 108.388V103.105H0.621549C1.79559 104.042 3.10775 104.762 4.55803 105.265C6.01818 105.768 7.41913 106.02 8.76089 106.02C9.10619 106.02 9.56002 105.99 10.1224 105.931C10.6847 105.872 11.1435 105.773 11.4987 105.635C11.9328 105.458 12.2879 105.236 12.5642 104.969C12.8503 104.703 12.9933 104.308 12.9933 103.785C12.9933 103.302 12.7862 102.887 12.3718 102.542C11.9673 102.187 11.3704 101.916 10.5811 101.728C9.7524 101.531 8.87434 101.348 7.94695 101.181C7.02943 101.003 6.16616 100.781 5.35716 100.515C3.50238 99.9129 2.16556 99.099 1.34669 98.073C0.537689 97.037 0.133189 95.7545 0.133189 94.2253C0.133189 92.1732 1.05071 90.5009 2.88576 89.2085C4.73068 87.9062 7.09849 87.255 9.98918 87.255C11.4395 87.255 12.87 87.3981 14.2808 87.6842C15.7015 87.9604 16.9298 88.3107 17.9657 88.7349V93.8109H17.359C16.4711 93.1006 15.3809 92.5086 14.0885 92.035C12.8059 91.5516 11.4937 91.3099 10.152 91.3099C9.67841 91.3099 9.20485 91.3444 8.73129 91.4135C8.26759 91.4727 7.8187 91.5911 7.3846 91.7687C6.99983 91.9167 6.66932 92.1436 6.39308 92.4494C6.11683 92.7454 5.97871 93.0858 5.97871 93.4705C5.97871 94.0526 6.20069 94.5015 6.64466 94.8172C7.08862 95.1231 7.92722 95.4042 9.16045 95.6608C9.96945 95.8285 10.7439 95.9913 11.4839 96.1491C12.2337 96.307 13.0377 96.524 13.8961 96.8003C15.5831 97.3527 16.8262 98.1075 17.6254 99.0645C18.4344 100.012 18.8389 101.245 18.8389 102.764Z" fill="#212121"/>
<path d="M27.7773 109.69H22.4498V86.6631H27.7773V109.69Z" fill="#212121"/>
<path d="M49.1764 102.365H36.9822C37.0611 103.667 37.5544 104.663 38.4621 105.354C39.3796 106.045 40.7263 106.39 42.5021 106.39C43.6268 106.39 44.717 106.188 45.7727 105.783C46.8283 105.379 47.662 104.945 48.2737 104.481H48.8656V108.758C47.662 109.241 46.5274 109.591 45.4619 109.808C44.3964 110.025 43.2174 110.134 41.925 110.134C38.5903 110.134 36.0351 109.384 34.2592 107.885C32.4833 106.385 31.5954 104.249 31.5954 101.477C31.5954 98.734 32.434 96.5635 34.1112 94.9652C35.7983 93.3571 38.1069 92.553 41.0371 92.553C43.7403 92.553 45.7727 93.2387 47.1342 94.61C48.4956 95.9715 49.1764 97.9348 49.1764 100.5V102.365ZM43.8784 99.2421C43.8488 98.1272 43.5726 97.2886 43.0497 96.7263C42.5268 96.1639 41.7129 95.8827 40.6079 95.8827C39.5818 95.8827 38.7383 96.1491 38.0773 96.6819C37.4163 97.2146 37.0463 98.068 36.9674 99.2421H43.8784Z" fill="#212121"/>
<path d="M69.6283 109.69H64.2712V101.447C64.2712 100.776 64.2366 100.11 64.1676 99.4492C64.0985 98.7784 63.9801 98.2851 63.8124 97.9694C63.6151 97.6043 63.324 97.3379 62.9393 97.1702C62.5644 97.0025 62.0365 96.9187 61.3558 96.9187C60.8724 96.9187 60.3791 96.9976 59.8759 97.1554C59.3826 97.3133 58.8449 97.5649 58.2628 97.9102V109.69H52.9353V93.071H58.2628V94.906C59.21 94.1661 60.1176 93.5988 60.9858 93.2042C61.8639 92.8095 62.8357 92.6122 63.9012 92.6122C65.6968 92.6122 67.0977 93.1351 68.104 94.1809C69.1202 95.2267 69.6283 96.7904 69.6283 98.8721V109.69Z" fill="#212121"/>
<path d="M90.7018 109.69H85.3742V107.959C84.4567 108.708 83.5984 109.261 82.7992 109.616C82.0001 109.971 81.0777 110.149 80.0319 110.149C78.0094 110.149 76.3914 109.369 75.1779 107.811C73.9644 106.252 73.3576 104.15 73.3576 101.506C73.3576 100.095 73.5599 98.8474 73.9644 97.7622C74.3787 96.6671 74.9411 95.7298 75.6514 94.9504C76.3223 94.2105 77.1362 93.6383 78.0932 93.2338C79.0502 92.8194 80.0072 92.6122 80.9642 92.6122C81.9606 92.6122 82.7746 92.7207 83.406 92.9378C84.0473 93.145 84.7034 93.4113 85.3742 93.7369V86.6631H90.7018V109.69ZM85.3742 105.102V96.9482C84.9993 96.7904 84.6047 96.6769 84.1903 96.6079C83.776 96.5388 83.3961 96.5043 83.0508 96.5043C81.6499 96.5043 80.5992 96.9433 79.8987 97.8214C79.1982 98.6896 78.848 99.8981 78.848 101.447C78.848 103.075 79.1291 104.259 79.6915 104.999C80.2539 105.729 81.1566 106.094 82.3997 106.094C82.8831 106.094 83.3961 106.005 83.9388 105.828C84.4814 105.64 84.9599 105.398 85.3742 105.102Z" fill="#212121"/>
<path d="M112.101 102.365H99.9066C99.9856 103.667 100.479 104.663 101.387 105.354C102.304 106.045 103.651 106.39 105.427 106.39C106.551 106.39 107.641 106.188 108.697 105.783C109.753 105.379 110.586 104.945 111.198 104.481H111.79V108.758C110.586 109.241 109.452 109.591 108.386 109.808C107.321 110.025 106.142 110.134 104.849 110.134C101.515 110.134 98.9595 109.384 97.1837 107.885C95.4078 106.385 94.5199 104.249 94.5199 101.477C94.5199 98.734 95.3585 96.5635 97.0357 94.9652C98.7227 93.3571 101.031 92.553 103.962 92.553C106.665 92.553 108.697 93.2387 110.059 94.61C111.42 95.9715 112.101 97.9348 112.101 100.5V102.365ZM106.803 99.2421C106.773 98.1272 106.497 97.2886 105.974 96.7263C105.451 96.1639 104.637 95.8827 103.532 95.8827C102.506 95.8827 101.663 96.1491 101.002 96.6819C100.341 97.2146 99.9708 98.068 99.8918 99.2421H106.803Z" fill="#212121"/>
<path d="M127.906 98.147H127.432C127.205 98.068 126.84 98.0088 126.337 97.9694C125.834 97.9299 125.415 97.9102 125.079 97.9102C124.32 97.9102 123.649 97.9595 123.067 98.0582C122.485 98.1568 121.858 98.3245 121.187 98.5613V109.69H115.86V93.071H121.187V95.5128C122.361 94.5064 123.382 93.8405 124.251 93.5149C125.119 93.1795 125.918 93.0118 126.648 93.0118C126.836 93.0118 127.048 93.0167 127.284 93.0266C127.521 93.0364 127.728 93.0512 127.906 93.071V98.147Z" fill="#212121"/>
<path d="M161.382 102.764C161.382 104.935 160.459 106.701 158.614 108.062C156.779 109.414 154.283 110.09 151.126 110.09C149.301 110.09 147.708 109.932 146.346 109.616C144.995 109.29 143.727 108.881 142.543 108.388V103.105H143.165C144.339 104.042 145.651 104.762 147.101 105.265C148.561 105.768 149.962 106.02 151.304 106.02C151.649 106.02 152.103 105.99 152.665 105.931C153.228 105.872 153.686 105.773 154.042 105.635C154.476 105.458 154.831 105.236 155.107 104.969C155.393 104.703 155.536 104.308 155.536 103.785C155.536 103.302 155.329 102.887 154.915 102.542C154.51 102.187 153.913 101.916 153.124 101.728C152.295 101.531 151.417 101.348 150.49 101.181C149.572 101.003 148.709 100.781 147.9 100.515C146.045 99.9129 144.709 99.099 143.89 98.073C143.081 97.037 142.676 95.7545 142.676 94.2253C142.676 92.1732 143.594 90.5009 145.429 89.2085C147.274 87.9062 149.641 87.255 152.532 87.255C153.982 87.255 155.413 87.3981 156.824 87.6842C158.244 87.9604 159.473 88.3107 160.509 88.7349V93.8109H159.902C159.014 93.1006 157.924 92.5086 156.631 92.035C155.349 91.5516 154.037 91.3099 152.695 91.3099C152.221 91.3099 151.748 91.3444 151.274 91.4135C150.811 91.4727 150.362 91.5911 149.928 91.7687C149.543 91.9167 149.212 92.1436 148.936 92.4494C148.66 92.7454 148.522 93.0858 148.522 93.4705C148.522 94.0526 148.744 94.5015 149.188 94.8172C149.632 95.1231 150.47 95.4042 151.703 95.6608C152.512 95.8285 153.287 95.9913 154.027 96.1491C154.777 96.307 155.581 96.524 156.439 96.8003C158.126 97.3527 159.369 98.1075 160.168 99.0645C160.977 100.012 161.382 101.245 161.382 102.764Z" fill="#212121"/>
<path d="M175.618 109.542C175.046 109.69 174.439 109.803 173.798 109.882C173.157 109.971 172.372 110.016 171.445 110.016C169.373 110.016 167.829 109.596 166.813 108.758C165.807 107.919 165.304 106.484 165.304 104.451V96.6819H163.113V93.071H165.304V88.3206H170.631V93.071H175.618V96.6819H170.631V102.572C170.631 103.154 170.636 103.662 170.646 104.096C170.656 104.53 170.735 104.92 170.883 105.265C171.021 105.61 171.262 105.887 171.608 106.094C171.963 106.291 172.476 106.39 173.147 106.39C173.423 106.39 173.783 106.331 174.227 106.212C174.681 106.094 174.997 105.985 175.174 105.887H175.618V109.542Z" fill="#212121"/>
<path d="M190.861 98.147H190.387C190.161 98.068 189.796 98.0088 189.292 97.9694C188.789 97.9299 188.37 97.9102 188.034 97.9102C187.275 97.9102 186.604 97.9595 186.022 98.0582C185.44 98.1568 184.813 98.3245 184.142 98.5613V109.69H178.815V93.071H184.142V95.5128C185.316 94.5064 186.338 93.8405 187.206 93.5149C188.074 93.1795 188.873 93.0118 189.603 93.0118C189.791 93.0118 190.003 93.0167 190.239 93.0266C190.476 93.0364 190.683 93.0512 190.861 93.071V98.147Z" fill="#212121"/>
<path d="M199.208 109.69H193.88V93.071H199.208V109.69ZM199.356 90.7032H193.732V86.6631H199.356V90.7032Z" fill="#212121"/>
<path d="M220.399 109.69H215.072V107.959C214.154 108.708 213.296 109.261 212.497 109.616C211.698 109.971 210.775 110.149 209.729 110.149C207.707 110.149 206.089 109.369 204.875 107.811C203.662 106.252 203.055 104.15 203.055 101.506C203.055 100.095 203.257 98.8474 203.662 97.7622C204.076 96.6671 204.639 95.7298 205.349 94.9504C206.02 94.2105 206.834 93.6383 207.791 93.2338C208.748 92.8194 209.705 92.6122 210.662 92.6122C211.658 92.6122 212.472 92.7207 213.104 92.9378C213.745 93.145 214.401 93.4113 215.072 93.7369V86.6631H220.399V109.69ZM215.072 105.102V96.9482C214.697 96.7904 214.302 96.6769 213.888 96.6079C213.474 96.5388 213.094 96.5043 212.748 96.5043C211.347 96.5043 210.297 96.9433 209.596 97.8214C208.896 98.6896 208.546 99.8981 208.546 101.447C208.546 103.075 208.827 104.259 209.389 104.999C209.951 105.729 210.854 106.094 212.097 106.094C212.581 106.094 213.094 106.005 213.636 105.828C214.179 105.64 214.657 105.398 215.072 105.102Z" fill="#212121"/>
<path d="M241.798 102.365H229.604C229.683 103.667 230.176 104.663 231.084 105.354C232.002 106.045 233.348 106.39 235.124 106.39C236.249 106.39 237.339 106.188 238.395 105.783C239.45 105.379 240.284 104.945 240.896 104.481H241.488V108.758C240.284 109.241 239.149 109.591 238.084 109.808C237.018 110.025 235.839 110.134 234.547 110.134C231.212 110.134 228.657 109.384 226.881 107.885C225.105 106.385 224.218 104.249 224.218 101.477C224.218 98.734 225.056 96.5635 226.733 94.9652C228.42 93.3571 230.729 92.553 233.659 92.553C236.362 92.553 238.395 93.2387 239.756 94.61C241.118 95.9715 241.798 97.9348 241.798 100.5V102.365ZM236.501 99.2421C236.471 98.1272 236.195 97.2886 235.672 96.7263C235.149 96.1639 234.335 95.8827 233.23 95.8827C232.204 95.8827 231.36 96.1491 230.699 96.6819C230.038 97.2146 229.668 98.068 229.589 99.2421H236.501Z" fill="#212121"/>
<path d="M260.001 104.422C260.001 106.138 259.231 107.524 257.692 108.58C256.153 109.626 254.047 110.149 251.373 110.149C249.893 110.149 248.552 110.011 247.348 109.734C246.144 109.458 245.178 109.152 244.447 108.817V104.436H244.936C245.202 104.624 245.508 104.831 245.853 105.058C246.209 105.275 246.707 105.512 247.348 105.768C247.901 105.995 248.527 106.193 249.227 106.36C249.928 106.518 250.678 106.597 251.477 106.597C252.523 106.597 253.297 106.484 253.8 106.257C254.303 106.02 254.555 105.675 254.555 105.221C254.555 104.816 254.407 104.525 254.111 104.348C253.815 104.16 253.253 103.983 252.424 103.815C252.029 103.726 251.492 103.632 250.811 103.534C250.14 103.425 249.528 103.297 248.976 103.149C247.466 102.754 246.347 102.143 245.617 101.314C244.886 100.475 244.521 99.4344 244.521 98.1913C244.521 96.5931 245.276 95.2661 246.786 94.2105C248.305 93.145 250.377 92.6122 253.001 92.6122C254.244 92.6122 255.433 92.7405 256.568 92.997C257.712 93.2436 258.605 93.51 259.246 93.7961V97.999H258.787C257.998 97.4563 257.095 97.0173 256.079 96.6819C255.073 96.3366 254.052 96.1639 253.016 96.1639C252.158 96.1639 251.432 96.2823 250.841 96.5191C250.258 96.7559 249.967 97.0913 249.967 97.5254C249.967 97.92 250.101 98.2209 250.367 98.4281C250.633 98.6353 251.26 98.8425 252.246 99.0497C252.789 99.1582 253.371 99.2667 253.993 99.3753C254.624 99.4739 255.256 99.6022 255.887 99.76C257.288 100.125 258.324 100.702 258.995 101.491C259.666 102.271 260.001 103.248 260.001 104.422Z" fill="#212121"/>
<defs>
<clipPath id="clip0_1_40">
<rect width="75.7698" height="86.5908" fill="white" transform="translate(80.9783 28.8691) rotate(-22.3964)"/>
</clipPath>
</defs>
</svg>
