<svg width="128" height="128" viewBox="0 0 128 128" fill="none" xmlns="http://www.w3.org/2000/svg">
<g opacity="0.75">
<path d="M46.8572 59.7142C41.174 59.7142 35.7235 57.4566 31.7049 53.4379C27.6863 49.4193 25.4286 43.9689 25.4286 38.2856V21.1428C25.4286 20.0061 25.8801 18.9161 26.6839 18.1123C27.4876 17.3086 28.5777 16.8571 29.7143 16.8571H34C35.1367 16.8571 36.2268 16.4055 37.0305 15.6018C37.8342 14.7981 38.2858 13.708 38.2858 12.5714C38.2858 11.4347 37.8342 10.3446 37.0305 9.5409C36.2268 8.73717 35.1367 8.28564 34 8.28564H29.7143C26.3044 8.28564 23.0341 9.64023 20.6229 12.0514C18.2118 14.4626 16.8572 17.7329 16.8572 21.1428V38.2856C16.8627 43.1274 18.0433 47.8954 20.2977 52.1803C22.5522 56.4651 25.8129 60.1388 29.8 62.8856C33.6307 66.2629 36.7374 70.3814 38.9324 74.9924C41.1274 79.6035 42.3654 84.6115 42.5715 89.7142C42.5715 97.6707 45.7322 105.301 51.3583 110.927C56.9844 116.554 64.615 119.714 72.5715 119.714C80.528 119.714 88.1586 116.554 93.7847 110.927C99.4108 105.301 102.571 97.6707 102.571 89.7142V84.8285C106.611 83.7854 110.132 81.3047 112.474 77.8513C114.816 74.398 115.818 70.2091 115.292 66.0699C114.766 61.9307 112.749 58.1254 109.618 55.3671C106.487 52.6089 102.458 51.0871 98.2858 51.0871C94.1133 51.0871 90.0841 52.6089 86.9533 55.3671C83.8226 58.1254 81.8053 61.9307 81.2795 66.0699C80.7538 70.2091 81.7557 74.398 84.0975 77.8513C86.4392 81.3047 89.9601 83.7854 94 84.8285V89.7142C94 95.3974 91.7424 100.848 87.7238 104.867C83.7051 108.885 78.2547 111.143 72.5715 111.143C66.8883 111.143 61.4378 108.885 57.4192 104.867C53.4005 100.848 51.1429 95.3974 51.1429 89.7142C51.3598 84.6052 52.6111 79.5933 54.8211 74.9819C57.0311 70.3704 60.1537 66.2553 64 62.8856C67.9713 60.1292 71.2154 56.4514 73.4546 52.1672C75.6937 47.8829 76.8613 43.1198 76.8572 38.2856V21.1428C76.8572 17.7329 75.5026 14.4626 73.0914 12.0514C70.6802 9.64023 67.41 8.28564 64 8.28564H59.7143C58.5777 8.28564 57.4876 8.73717 56.6839 9.5409C55.8801 10.3446 55.4286 11.4347 55.4286 12.5714C55.4286 13.708 55.8801 14.7981 56.6839 15.6018C57.4876 16.4055 58.5777 16.8571 59.7143 16.8571H64C65.1367 16.8571 66.2268 17.3086 67.0305 18.1123C67.8342 18.9161 68.2858 20.0061 68.2858 21.1428V38.2856C68.2858 41.0997 67.7315 43.8862 66.6546 46.486C65.5777 49.0858 63.9993 51.4481 62.0095 53.4379C60.0196 55.4278 57.6574 57.0062 55.0575 58.0831C52.4577 59.16 49.6712 59.7142 46.8572 59.7142ZM98.2858 76.8571C96.0125 76.8571 93.8323 75.954 92.2248 74.3466C90.6174 72.7391 89.7143 70.5589 89.7143 68.2856C89.7143 66.0124 90.6174 63.8322 92.2248 62.2247C93.8323 60.6173 96.0125 59.7142 98.2858 59.7142C100.559 59.7142 102.739 60.6173 104.347 62.2247C105.954 63.8322 106.857 66.0124 106.857 68.2856C106.857 70.5589 105.954 72.7391 104.347 74.3466C102.739 75.954 100.559 76.8571 98.2858 76.8571Z" fill="#5DB3D6"/>
</g>
</svg>
