<svg width="128" height="128" viewBox="0 0 128 128" fill="none" xmlns="http://www.w3.org/2000/svg">
<g opacity="0.75">
<path d="M96.4286 8.03564H32.1429C30.0117 8.03564 27.9678 8.88226 26.4608 10.3893C24.9538 11.8962 24.1072 13.9402 24.1072 16.0714V32.1428C24.1072 34.274 24.9538 36.3179 26.4608 37.8249C27.9678 39.3319 30.0117 40.1785 32.1429 40.1785V112.5C32.1429 114.631 32.9895 116.675 34.4965 118.182C36.0035 119.689 38.0474 120.536 40.1786 120.536H88.3929C90.5241 120.536 92.568 119.689 94.075 118.182C95.582 116.675 96.4286 114.631 96.4286 112.5V40.1785C98.5598 40.1785 100.604 39.3319 102.111 37.8249C103.618 36.3179 104.464 34.274 104.464 32.1428V16.0714C104.464 13.9402 103.618 11.8962 102.111 10.3893C100.604 8.88226 98.5598 8.03564 96.4286 8.03564ZM40.1786 56.2499H52.2322V96.4285H40.1786V56.2499ZM88.3929 112.5H40.1786V104.464H60.2679V48.2142H40.1786V40.1785H88.3929V112.5ZM32.1429 32.1428V16.0714H96.4286V32.1428H32.1429Z" fill="#5DB3D6"/>
</g>
</svg>
