<svg width="128" height="128" viewBox="0 0 128 128" fill="none" xmlns="http://www.w3.org/2000/svg">
<g opacity="0.75">
<path d="M74.6669 42.6659H24.8891C23.9461 42.6659 23.0418 42.2913 22.375 41.6245C21.7082 40.9577 21.3336 40.0533 21.3336 39.1103V24.8881C21.3336 23.9451 21.7082 23.0407 22.375 22.3739C23.0418 21.7071 23.9461 21.3325 24.8891 21.3325H74.6669C75.6099 21.3325 76.5143 21.7071 77.1811 22.3739C77.8479 23.0407 78.2225 23.9451 78.2225 24.8881V39.1103C78.2225 40.0533 77.8479 40.9577 77.1811 41.6245C76.5143 42.2913 75.6099 42.6659 74.6669 42.6659ZM28.4447 35.5547H71.1113V28.2303H28.4447V35.5547Z" fill="#5DB3D6"/>
<path d="M74.6666 50.062H24.8888C23.9458 50.062 23.0414 50.4366 22.3747 51.1034C21.7079 51.7702 21.3333 52.6746 21.3333 53.6176V67.5553C21.3333 68.4983 21.7079 69.4027 22.3747 70.0695C23.0414 70.7363 23.9458 71.1109 24.8888 71.1109H65.2799L78.2221 57.9553V53.6176C78.2221 52.6746 77.8475 51.7702 77.1807 51.1034C76.514 50.4366 75.6096 50.062 74.6666 50.062ZM71.111 63.9998H28.4444V56.8887H71.111V63.9998Z" fill="#5DB3D6"/>
<path d="M39.3244 112.035V111.822L40.4621 106.88H14.2221V14.222H85.3332V50.6664L92.4444 43.9464V10.6664C92.4444 9.7234 92.0698 8.81903 91.403 8.15224C90.7362 7.48544 89.8318 7.11084 88.8888 7.11084H10.6666C9.72359 7.11084 8.81922 7.48544 8.15242 8.15224C7.48562 8.81903 7.11102 9.7234 7.11102 10.6664V110.222C7.11102 111.165 7.48562 112.069 8.15242 112.736C8.81922 113.403 9.72359 113.778 10.6666 113.778H39.111C39.1403 113.192 39.2116 112.61 39.3244 112.035Z" fill="#5DB3D6"/>
<path d="M78.2226 68.1594L75.4493 70.9683C76.1373 70.8265 76.768 70.484 77.2615 69.9841C77.7551 69.4842 78.0896 68.8492 78.2226 68.1594Z" fill="#5DB3D6"/>
<path d="M21.3333 95.7864C21.3333 96.7294 21.7079 97.6337 22.3747 98.3005C23.0414 98.9673 23.9458 99.3419 24.8888 99.3419H42.0977L43.1644 94.7197L43.6266 92.7641V92.5864H28.4444V85.333H50.9866L58.0977 78.2219H24.8888C23.9458 78.2219 23.0414 78.5965 22.3747 79.2633C21.7079 79.9301 21.3333 80.8345 21.3333 81.7775V95.7864Z" fill="#5DB3D6"/>
<path d="M119.076 59.2706L107.094 47.2884C106.562 46.7552 105.93 46.3321 105.235 46.0435C104.539 45.7548 103.793 45.6062 103.04 45.6062C102.287 45.6062 101.542 45.7548 100.846 46.0435C100.15 46.3321 99.5187 46.7552 98.9869 47.2884L50.2403 96.3195L46.2225 113.422C46.0721 114.16 46.0687 114.92 46.2126 115.659C46.3564 116.398 46.6447 117.102 47.0608 117.729C47.477 118.357 48.0129 118.896 48.6378 119.316C49.2627 119.736 49.9643 120.029 50.7025 120.177C51.069 120.214 51.4382 120.214 51.8047 120.177C52.2404 120.248 52.6846 120.248 53.1203 120.177L70.3647 116.373L119.076 67.5551C119.608 67.0263 120.03 66.3976 120.318 65.705C120.607 65.0124 120.755 64.2697 120.755 63.5195C120.755 62.7694 120.607 62.0266 120.318 61.334C120.03 60.6414 119.608 60.0127 119.076 59.484V59.2706ZM66.7381 109.902L53.7247 112.782L56.8892 99.8751L93.4403 62.9328L103.467 72.9595L66.7381 109.902ZM107.485 68.9417L97.4581 58.9151L103.111 53.3328L113.209 63.4306L107.485 68.9417Z" fill="#5DB3D6"/>
</g>
</svg>
