<svg width="100" height="44" viewBox="0 0 100 44" fill="none" xmlns="http://www.w3.org/2000/svg">
<g clip-path="url(#clip0_1_16)">
<path d="M41.3991 22.8597C41.3991 22.8597 57.3907 8.16515 51.211 39.3566C51.211 39.3566 60.0104 21.8887 54.1505 15.5938C49.705 10.8186 41.3991 22.8597 41.3991 22.8597Z" fill="#5DB3D6"/>
<path d="M48.384 14.3605C49.9407 13.719 50.6826 11.937 50.0411 10.3803C49.3995 8.82362 47.6176 8.08172 46.0609 8.72322C44.5042 9.36472 43.7623 11.1467 44.4038 12.7034C45.0453 14.2601 46.8273 15.002 48.384 14.3605Z" fill="#5DB3D6"/>
<path d="M47.7578 33.6111C47.3527 33.5384 46.9431 33.4929 46.5431 33.3866C46.3428 33.3367 46.1378 33.2983 45.9408 33.2408L45.3473 33.0629C44.5657 32.7955 43.7896 32.488 43.0635 32.0875L42.7865 31.9432L42.5185 31.7825C42.3409 31.6728 42.1618 31.567 41.9869 31.4562C41.6477 31.2146 41.2957 30.9876 40.9768 30.7187L40.7323 30.5232C40.6494 30.4596 40.5681 30.3923 40.4921 30.3227L40.025 29.9005C39.9463 29.832 39.8719 29.7587 39.7991 29.6815L39.5803 29.4564C39.4358 29.3048 39.2844 29.1591 39.1512 28.9965C36.9233 26.4818 35.6199 23.1353 35.5753 19.7302C35.5627 18.8812 35.6248 18.0297 35.7595 17.1861C35.8952 16.3452 36.1112 15.5154 36.3908 14.7099C36.9603 13.1008 37.8127 11.5895 38.8972 10.2662C39.9783 8.93493 41.3193 7.8212 42.7976 6.95664C44.2776 6.08828 45.9113 5.49381 47.5978 5.18024C48.4428 5.02749 49.3015 4.95417 50.1599 4.95662C51.0184 4.95907 51.8754 5.03461 52.7191 5.18497C54.4055 5.483 56.0429 6.07544 57.5192 6.94233C58.9955 7.80922 60.3256 8.92552 61.4109 10.2435C62.499 11.5604 63.3498 13.0665 63.9082 14.6742C64.4683 16.278 64.756 17.9783 64.7243 19.6684C64.6926 21.3585 64.3637 23.0387 63.7581 24.6059C63.1448 26.17 62.2679 27.622 61.1632 28.8653C60.6095 29.4876 60.006 30.0578 59.3542 30.5723C58.7003 31.0813 58.0084 31.5367 57.279 31.9161C57.9726 31.4726 58.6256 30.9766 59.2315 30.4274C59.8385 29.8809 60.3957 29.2825 60.8946 28.6419C61.8934 27.3634 62.6741 25.9226 63.1762 24.3949C64.2113 21.3456 64.1265 17.9729 62.9857 15.0134C62.7025 14.2727 62.3508 13.557 61.9428 12.8804C61.5374 12.2026 61.0787 11.5562 60.5659 10.9543C59.5413 9.7531 58.2946 8.74743 56.9265 7.97468C54.1916 6.40966 50.908 5.84623 47.8174 6.41686C46.2761 6.69266 44.7695 7.22844 43.4116 8.01813C42.0477 8.80086 40.8232 9.82245 39.8089 11.0253C38.7898 12.2239 37.9809 13.6038 37.4247 15.0845C36.8788 16.5672 36.5785 18.141 36.5544 19.7271C36.5211 21.3138 36.8039 22.9027 37.3132 24.414C37.3806 24.6005 37.4465 24.7909 37.5166 24.9764L37.7507 25.5292C37.7912 25.6197 37.8274 25.7152 37.8705 25.8046L38.0064 26.0732C38.0981 26.2498 38.1855 26.4313 38.2799 26.6068L38.5846 27.1243C38.6358 27.2103 38.6843 27.2975 38.7409 27.3814L38.9097 27.6302C39.0245 27.7941 39.1324 27.964 39.2526 28.1257L39.6218 28.6008C39.7393 28.7636 39.8788 28.911 40.0103 29.0617L40.208 29.2892C40.2743 29.3659 40.3395 29.4399 40.4128 29.5106L40.8388 29.9402C40.9067 30.0131 40.9843 30.0789 41.0591 30.1458L41.2863 30.3453C41.5798 30.6215 41.9103 30.8573 42.2263 31.1117C42.3888 31.2307 42.5599 31.3399 42.7251 31.4578L42.9765 31.6316L43.2368 31.7891C44.6145 32.6462 46.1546 33.2472 47.7578 33.6111Z" fill="#5DB3D6"/>
<path d="M53.0227 7.77362C54.9247 8.25073 56.7051 9.26655 58.1541 10.6333C58.8875 11.3114 59.5245 12.0923 60.0809 12.9222C60.633 13.757 61.0834 14.6589 61.4439 15.5948C62.1529 17.4682 62.4355 19.508 62.2358 21.4942C62.0416 23.4783 61.3592 25.4176 60.2207 27.0152C61.082 25.2575 61.5667 23.3587 61.6481 21.4527C61.7311 19.5429 61.4061 17.6373 60.7371 15.8608C60.4101 14.9679 59.9861 14.115 59.483 13.3073C58.988 12.4962 58.3919 11.7458 57.7422 11.0489C56.4278 9.66454 54.8222 8.54515 53.0227 7.77362Z" fill="#99D3EB"/>
<path d="M45.9111 31.3112C44.2346 30.7695 42.6834 29.7822 41.4183 28.5098C40.7796 27.8778 40.2255 27.1605 39.737 26.4035C39.2555 25.6404 38.8628 24.8251 38.5493 23.9802C37.9304 22.2871 37.6797 20.4549 37.8349 18.6667C37.9873 16.8796 38.545 15.1272 39.4951 13.6386C38.8274 15.2693 38.462 16.9834 38.4246 18.6979C38.3845 20.4135 38.681 22.1197 39.2621 23.7211C39.5459 24.5246 39.9182 25.298 40.3496 26.0312C40.7768 26.7694 41.2911 27.459 41.8488 28.1086C42.9804 29.4013 44.3588 30.4819 45.9111 31.3112Z" fill="#99D3EB"/>
</g>
<path d="M7.24572 40.0248C7.24572 40.8596 6.89092 41.5388 6.18134 42.0624C5.47555 42.5823 4.51553 42.8422 3.30127 42.8422C2.59928 42.8422 1.98645 42.7815 1.4628 42.6601C0.942949 42.5349 0.455347 42.3774 0 42.1877V40.1557H0.239057C0.69061 40.5162 1.19529 40.7932 1.75309 40.9867C2.31468 41.1802 2.85351 41.277 3.36957 41.277C3.50238 41.277 3.67693 41.2656 3.89322 41.2428C4.10951 41.22 4.28596 41.1821 4.42256 41.129C4.58952 41.0607 4.72613 40.9753 4.83237 40.8728C4.94242 40.7704 4.99744 40.6186 4.99744 40.4175C4.99744 40.2316 4.91775 40.0722 4.75838 39.9394C4.6028 39.8028 4.37323 39.6984 4.06967 39.6263C3.75092 39.5504 3.41321 39.4802 3.05652 39.4157C2.70363 39.3474 2.3716 39.2621 2.06045 39.1596C1.34707 38.9281 0.832906 38.6151 0.517958 38.2204C0.206804 37.822 0.0512266 37.3287 0.0512266 36.7406C0.0512266 35.9513 0.404121 35.3081 1.10991 34.811C1.81949 34.3101 2.73019 34.0597 3.84199 34.0597C4.39979 34.0597 4.95001 34.1147 5.49263 34.2248C6.03905 34.331 6.51147 34.4657 6.9099 34.6289V36.5812H6.67653C6.33502 36.308 5.91572 36.0803 5.41863 35.8982C4.92534 35.7122 4.42066 35.6193 3.9046 35.6193C3.72247 35.6193 3.54033 35.6326 3.35819 35.6591C3.17984 35.6819 3.00719 35.7274 2.84023 35.7957C2.69224 35.8526 2.56512 35.9399 2.45888 36.0575C2.35263 36.1714 2.2995 36.3023 2.2995 36.4503C2.2995 36.6742 2.38488 36.8468 2.55564 36.9682C2.72639 37.0859 3.04893 37.194 3.52325 37.2927C3.8344 37.3572 4.13228 37.4198 4.41687 37.4805C4.70526 37.5412 5.01451 37.6247 5.34464 37.7309C5.99351 37.9434 6.47163 38.2337 6.77899 38.6018C7.09014 38.9661 7.24572 39.4404 7.24572 40.0248Z" fill="#212121"/>
<path d="M10.6836 42.6885H8.63453V33.832H10.6836V42.6885Z" fill="#212121"/>
<path d="M18.914 39.8711H14.2239C14.2543 40.372 14.444 40.7552 14.7931 41.0208C15.146 41.2865 15.664 41.4193 16.347 41.4193C16.7796 41.4193 17.1989 41.3415 17.6049 41.1859C18.0109 41.0303 18.3315 40.8634 18.5668 40.685H18.7945V42.33C18.3315 42.5159 17.8952 42.6506 17.4853 42.7341C17.0755 42.8176 16.6221 42.8593 16.125 42.8593C14.8424 42.8593 13.8596 42.5709 13.1766 41.9941C12.4936 41.4174 12.1521 40.5958 12.1521 39.5296C12.1521 38.4747 12.4746 37.6399 13.1197 37.0252C13.7686 36.4066 14.6565 36.0974 15.7835 36.0974C16.8232 36.0974 17.6049 36.3611 18.1285 36.8886C18.6522 37.4122 18.914 38.1673 18.914 39.1539V39.8711ZM16.8763 38.6701C16.8649 38.2413 16.7587 37.9188 16.5576 37.7025C16.3565 37.4862 16.0434 37.3781 15.6184 37.3781C15.2238 37.3781 14.8993 37.4805 14.6451 37.6854C14.3909 37.8903 14.2486 38.2185 14.2182 38.6701H16.8763Z" fill="#212121"/>
<path d="M26.7801 42.6885H24.7197V39.5182C24.7197 39.2602 24.7064 39.004 24.6798 38.7498C24.6533 38.4918 24.6077 38.302 24.5432 38.1806C24.4673 38.0402 24.3554 37.9377 24.2074 37.8732C24.0632 37.8087 23.8602 37.7765 23.5984 37.7765C23.4124 37.7765 23.2227 37.8068 23.0292 37.8675C22.8395 37.9283 22.6327 38.025 22.4088 38.1578V42.6885H20.3597V36.2966H22.4088V37.0024C22.7731 36.7178 23.1222 36.4996 23.4561 36.3478C23.7938 36.196 24.1676 36.1202 24.5774 36.1202C25.268 36.1202 25.8068 36.3213 26.1939 36.7235C26.5847 37.1257 26.7801 37.7272 26.7801 38.5278V42.6885Z" fill="#212121"/>
<path d="M34.8853 42.6885H32.8362V42.0226C32.4833 42.311 32.1532 42.5235 31.8459 42.6601C31.5385 42.7967 31.1837 42.865 30.7815 42.865C30.0036 42.865 29.3813 42.5652 28.9146 41.9657C28.4478 41.3661 28.2145 40.5579 28.2145 39.541C28.2145 38.9983 28.2923 38.5183 28.4478 38.1009C28.6072 37.6797 28.8235 37.3192 29.0967 37.0195C29.3547 36.7349 29.6678 36.5148 30.0359 36.3592C30.4039 36.1998 30.772 36.1202 31.1401 36.1202C31.5233 36.1202 31.8364 36.1619 32.0792 36.2454C32.3259 36.3251 32.5782 36.4275 32.8362 36.5527V33.832H34.8853V42.6885ZM32.8362 40.9241V37.7879C32.6921 37.7272 32.5403 37.6835 32.3809 37.657C32.2215 37.6304 32.0754 37.6171 31.9426 37.6171C31.4038 37.6171 30.9997 37.786 30.7303 38.1237C30.4608 38.4576 30.3261 38.9224 30.3261 39.5182C30.3261 40.1443 30.4343 40.5996 30.6506 40.8842C30.8669 41.165 31.2141 41.3054 31.6922 41.3054C31.8781 41.3054 32.0754 41.2713 32.2841 41.203C32.4928 41.1309 32.6769 41.0379 32.8362 40.9241Z" fill="#212121"/>
<path d="M43.1157 39.8711H38.4256C38.456 40.372 38.6457 40.7552 38.9948 41.0208C39.3477 41.2865 39.8657 41.4193 40.5487 41.4193C40.9813 41.4193 41.4006 41.3415 41.8066 41.1859C42.2126 41.0303 42.5332 40.8634 42.7685 40.685H42.9962V42.33C42.5332 42.5159 42.0969 42.6506 41.6871 42.7341C41.2772 42.8176 40.8238 42.8593 40.3267 42.8593C39.0441 42.8593 38.0614 42.5709 37.3783 41.9941C36.6953 41.4174 36.3538 40.5958 36.3538 39.5296C36.3538 38.4747 36.6763 37.6399 37.3214 37.0252C37.9703 36.4066 38.8582 36.0974 39.9852 36.0974C41.0249 36.0974 41.8066 36.3611 42.3302 36.8886C42.8539 37.4122 43.1157 38.1673 43.1157 39.1539V39.8711ZM41.078 38.6701C41.0666 38.2413 40.9604 37.9188 40.7593 37.7025C40.5582 37.4862 40.2451 37.3781 39.8201 37.3781C39.4255 37.3781 39.1011 37.4805 38.8468 37.6854C38.5926 37.8903 38.4503 38.2185 38.4199 38.6701H41.078Z" fill="#212121"/>
<path d="M49.1946 38.2489H49.0125C48.9252 38.2185 48.7848 38.1958 48.5913 38.1806C48.3977 38.1654 48.2365 38.1578 48.1075 38.1578C47.8153 38.1578 47.5572 38.1768 47.3334 38.2148C47.1095 38.2527 46.8685 38.3172 46.6105 38.4083V42.6885H44.5614V36.2966H46.6105V37.2358C47.0621 36.8487 47.4548 36.5926 47.7887 36.4674C48.1226 36.3383 48.43 36.2738 48.7108 36.2738C48.7829 36.2738 48.8645 36.2757 48.9555 36.2795C49.0466 36.2833 49.1263 36.289 49.1946 36.2966V38.2489Z" fill="#212121"/>
<path d="M62.0699 40.0248C62.0699 40.8596 61.7151 41.5388 61.0056 42.0624C60.2998 42.5823 59.3397 42.8422 58.1255 42.8422C57.4235 42.8422 56.8107 42.7815 56.287 42.6601C55.7672 42.5349 55.2796 42.3774 54.8242 42.1877V40.1557H55.0633C55.5148 40.5162 56.0195 40.7932 56.5773 40.9867C57.1389 41.1802 57.6777 41.277 58.1938 41.277C58.3266 41.277 58.5011 41.2656 58.7174 41.2428C58.9337 41.22 59.1102 41.1821 59.2468 41.129C59.4137 41.0607 59.5503 40.9753 59.6566 40.8728C59.7666 40.7704 59.8217 40.6186 59.8217 40.4175C59.8217 40.2316 59.742 40.0722 59.5826 39.9394C59.427 39.8028 59.1975 39.6984 58.8939 39.6263C58.5751 39.5504 58.2374 39.4802 57.8807 39.4157C57.5278 39.3474 57.1958 39.2621 56.8847 39.1596C56.1713 38.9281 55.6571 38.6151 55.3422 38.2204C55.031 37.822 54.8754 37.3287 54.8754 36.7406C54.8754 35.9513 55.2283 35.3081 55.9341 34.811C56.6437 34.3101 57.5544 34.0597 58.6662 34.0597C59.224 34.0597 59.7742 34.1147 60.3168 34.2248C60.8633 34.331 61.3357 34.4657 61.7341 34.6289V36.5812H61.5008C61.1592 36.308 60.7399 36.0803 60.2429 35.8982C59.7496 35.7122 59.2449 35.6193 58.7288 35.6193C58.5467 35.6193 58.3645 35.6326 58.1824 35.6591C58.0041 35.6819 57.8314 35.7274 57.6644 35.7957C57.5165 35.8526 57.3893 35.9399 57.2831 36.0575C57.1768 36.1714 57.1237 36.3023 57.1237 36.4503C57.1237 36.6742 57.2091 36.8468 57.3799 36.9682C57.5506 37.0859 57.8731 37.194 58.3475 37.2927C58.6586 37.3572 58.9565 37.4198 59.2411 37.4805C59.5295 37.5412 59.8387 37.6247 60.1689 37.7309C60.8177 37.9434 61.2958 38.2337 61.6032 38.6018C61.9144 38.9661 62.0699 39.4404 62.0699 40.0248Z" fill="#212121"/>
<path d="M67.5455 42.6316C67.3254 42.6885 67.092 42.7322 66.8454 42.7625C66.5987 42.7967 66.2971 42.8138 65.9404 42.8138C65.1435 42.8138 64.5497 42.6525 64.1588 42.33C63.7718 42.0074 63.5783 41.4553 63.5783 40.6736V37.6854H62.7359V36.2966H63.5783V34.4695H65.6273V36.2966H67.5455V37.6854H65.6273V39.9508C65.6273 40.1746 65.6292 40.3701 65.633 40.537C65.6368 40.704 65.6672 40.8539 65.7241 40.9867C65.7772 41.1195 65.8702 41.2257 66.003 41.3054C66.1396 41.3813 66.3369 41.4193 66.595 41.4193C66.7012 41.4193 66.8397 41.3965 67.0105 41.351C67.185 41.3054 67.3064 41.2637 67.3747 41.2257H67.5455V42.6316Z" fill="#212121"/>
<path d="M73.4081 38.2489H73.2259C73.1387 38.2185 72.9983 38.1958 72.8048 38.1806C72.6112 38.1654 72.45 38.1578 72.3209 38.1578C72.0288 38.1578 71.7707 38.1768 71.5469 38.2148C71.323 38.2527 71.082 38.3172 70.824 38.4083V42.6885H68.7749V36.2966H70.824V37.2358C71.2755 36.8487 71.6683 36.5926 72.0022 36.4674C72.3361 36.3383 72.6435 36.2738 72.9243 36.2738C72.9964 36.2738 73.078 36.2757 73.169 36.2795C73.2601 36.2833 73.3398 36.289 73.4081 36.2966V38.2489Z" fill="#212121"/>
<path d="M76.6183 42.6885H74.5692V36.2966H76.6183V42.6885ZM76.6752 35.3859H74.5123V33.832H76.6752V35.3859Z" fill="#212121"/>
<path d="M84.769 42.6885H82.7199V42.0226C82.3671 42.311 82.0369 42.5235 81.7296 42.6601C81.4222 42.7967 81.0674 42.865 80.6652 42.865C79.8873 42.865 79.265 42.5652 78.7983 41.9657C78.3315 41.3661 78.0982 40.5579 78.0982 39.541C78.0982 38.9983 78.176 38.5183 78.3315 38.1009C78.4909 37.6797 78.7072 37.3192 78.9804 37.0195C79.2384 36.7349 79.5515 36.5148 79.9196 36.3592C80.2876 36.1998 80.6557 36.1202 81.0238 36.1202C81.407 36.1202 81.7201 36.1619 81.9629 36.2454C82.2096 36.3251 82.4619 36.4275 82.7199 36.5527V33.832H84.769V42.6885ZM82.7199 40.9241V37.7879C82.5758 37.7272 82.424 37.6835 82.2646 37.657C82.1052 37.6304 81.9591 37.6171 81.8263 37.6171C81.2875 37.6171 80.8834 37.786 80.614 38.1237C80.3445 38.4576 80.2098 38.9224 80.2098 39.5182C80.2098 40.1443 80.318 40.5996 80.5343 40.8842C80.7506 41.165 81.0978 41.3054 81.5759 41.3054C81.7618 41.3054 81.9591 41.2713 82.1678 41.203C82.3765 41.1309 82.5606 41.0379 82.7199 40.9241Z" fill="#212121"/>
<path d="M92.9994 39.8711H88.3093C88.3397 40.372 88.5294 40.7552 88.8785 41.0208C89.2314 41.2865 89.7494 41.4193 90.4324 41.4193C90.865 41.4193 91.2843 41.3415 91.6903 41.1859C92.0963 41.0303 92.4169 40.8634 92.6522 40.685H92.8799V42.33C92.4169 42.5159 91.9806 42.6506 91.5708 42.7341C91.1609 42.8176 90.7075 42.8593 90.2104 42.8593C88.9278 42.8593 87.9451 42.5709 87.262 41.9941C86.579 41.4174 86.2375 40.5958 86.2375 39.5296C86.2375 38.4747 86.56 37.6399 87.2051 37.0252C87.854 36.4066 88.7419 36.0974 89.8689 36.0974C90.9086 36.0974 91.6903 36.3611 92.2139 36.8886C92.7376 37.4122 92.9994 38.1673 92.9994 39.1539V39.8711ZM90.9617 38.6701C90.9504 38.2413 90.8441 37.9188 90.643 37.7025C90.4419 37.4862 90.1288 37.3781 89.7038 37.3781C89.3092 37.3781 88.9848 37.4805 88.7305 37.6854C88.4763 37.8903 88.334 38.2185 88.3036 38.6701H90.9617Z" fill="#212121"/>
<path d="M100 40.6622C100 41.3225 99.7044 41.8556 99.1125 42.2617C98.5205 42.6639 97.7104 42.865 96.682 42.865C96.1129 42.865 95.5968 42.8119 95.1339 42.7056C94.6709 42.5994 94.299 42.4817 94.0183 42.3527V40.6679H94.2061C94.3085 40.74 94.4262 40.8197 94.559 40.907C94.6956 40.9905 94.8872 41.0815 95.1339 41.1802C95.3464 41.2675 95.5873 41.3434 95.8567 41.4079C96.1261 41.4686 96.4145 41.4989 96.7219 41.4989C97.1241 41.4989 97.422 41.4553 97.6155 41.368C97.809 41.277 97.9058 41.1442 97.9058 40.9696C97.9058 40.814 97.8489 40.7021 97.735 40.6338C97.6212 40.5617 97.4049 40.4934 97.0862 40.4289C96.9344 40.3947 96.7276 40.3587 96.4657 40.3207C96.2077 40.279 95.9725 40.2297 95.76 40.1727C95.1794 40.021 94.7487 39.7857 94.4679 39.467C94.1871 39.1444 94.0467 38.7441 94.0467 38.266C94.0467 37.6513 94.337 37.1409 94.9176 36.7349C95.5019 36.3251 96.2988 36.1202 97.3081 36.1202C97.7863 36.1202 98.2435 36.1695 98.6799 36.2681C99.12 36.363 99.4635 36.4655 99.7101 36.5755V38.192H99.5336C99.2301 37.9833 98.8829 37.8144 98.492 37.6854C98.105 37.5526 97.7123 37.4862 97.3138 37.4862C96.9837 37.4862 96.7048 37.5317 96.4771 37.6228C96.2533 37.7139 96.1413 37.8429 96.1413 38.0098C96.1413 38.1616 96.1925 38.2774 96.295 38.357C96.3974 38.4367 96.6384 38.5164 97.0179 38.5961C97.2266 38.6378 97.4504 38.6796 97.6895 38.7213C97.9323 38.7593 98.1752 38.8086 98.418 38.8693C98.9569 39.0097 99.3553 39.2317 99.6133 39.5353C99.8714 39.835 100 40.2107 100 40.6622Z" fill="#212121"/>
<defs>
<clipPath id="clip0_1_16">
<rect width="29.1422" height="33.3042" fill="white" transform="translate(31.1456 11.6035) rotate(-22.3964)"/>
</clipPath>
</defs>
</svg>
