<svg width="20" height="20" viewBox="0 0 20 20" fill="none" xmlns="http://www.w3.org/2000/svg">
<g clip-path="url(#clip0_1_74)">
<path d="M3.33329 16.6668C2.87496 16.6668 2.48246 16.5035 2.15579 16.1768C1.82913 15.8502 1.66607 15.4579 1.66663 15.0002V5.00016C1.66663 4.54183 1.82996 4.14933 2.15663 3.82266C2.48329 3.496 2.87552 3.33294 3.33329 3.3335H16.6666C17.125 3.3335 17.5175 3.49683 17.8441 3.8235C18.1708 4.15016 18.3338 4.54239 18.3333 5.00016V15.0002C18.3333 15.4585 18.17 15.851 17.8433 16.1777C17.5166 16.5043 17.1244 16.6674 16.6666 16.6668H3.33329ZM16.6666 6.66683L10.4375 10.5627C10.368 10.6043 10.295 10.6357 10.2183 10.6568C10.1416 10.6779 10.0688 10.6882 9.99996 10.6877C9.93052 10.6877 9.85746 10.6774 9.78079 10.6568C9.70413 10.6363 9.63135 10.6049 9.56246 10.5627L3.33329 6.66683V15.0002H16.6666V6.66683ZM9.99996 9.16683L16.6666 5.00016H3.33329L9.99996 9.16683ZM3.33329 6.87516V5.646V5.66683V5.65683V6.87516Z" fill="#404040"/>
</g>
<defs>
<clipPath id="clip0_1_74">
<rect width="20" height="20" fill="white"/>
</clipPath>
</defs>
</svg>
