<svg width="28" height="28" viewBox="0 0 28 28" fill="none" xmlns="http://www.w3.org/2000/svg">
<g clip-path="url(#clip0_1_106)">
<path d="M13.1834 22.5168C12.9695 22.3029 12.8575 22.0307 12.8474 21.7001C12.8372 21.3695 12.9395 21.0973 13.1542 20.8834L18.8709 15.1668H5.83336C5.5028 15.1668 5.22552 15.0548 5.00152 14.8308C4.77752 14.6068 4.66591 14.3299 4.66669 14.0001C4.66669 13.6695 4.77869 13.3923 5.00269 13.1683C5.22669 12.9443 5.50358 12.8327 5.83336 12.8334H18.8709L13.1542 7.11676C12.9403 6.90288 12.838 6.63065 12.8474 6.3001C12.8567 5.96954 12.9687 5.69732 13.1834 5.48343C13.3972 5.26954 13.6695 5.1626 14 5.1626C14.3306 5.1626 14.6028 5.26954 14.8167 5.48343L22.5167 13.1834C22.6334 13.2807 22.7162 13.4024 22.7652 13.5486C22.8142 13.6948 22.8383 13.8453 22.8375 14.0001C22.8375 14.1557 22.8134 14.3015 22.7652 14.4376C22.717 14.5737 22.6341 14.7001 22.5167 14.8168L14.8167 22.5168C14.6028 22.7307 14.3306 22.8376 14 22.8376C13.6695 22.8376 13.3972 22.7307 13.1834 22.5168Z" fill="white"/>
</g>
<defs>
<clipPath id="clip0_1_106">
<rect width="28" height="28" fill="white"/>
</clipPath>
</defs>
</svg>
