<svg width="20" height="20" viewBox="0 0 20 20" fill="none" xmlns="http://www.w3.org/2000/svg">
<g clip-path="url(#clip0_1_82)">
<path d="M8.74996 16.6668H11.25C11.3611 16.6668 11.4583 16.6252 11.5416 16.5418C11.625 16.4585 11.6666 16.3613 11.6666 16.2502C11.6666 16.1391 11.625 16.0418 11.5416 15.9585C11.4583 15.8752 11.3611 15.8335 11.25 15.8335H8.74996C8.63885 15.8335 8.54163 15.8752 8.45829 15.9585C8.37496 16.0418 8.33329 16.1391 8.33329 16.2502C8.33329 16.3613 8.37496 16.4585 8.45829 16.5418C8.54163 16.6252 8.63885 16.6668 8.74996 16.6668ZM5.83329 19.1668C5.37496 19.1668 4.98246 19.0035 4.65579 18.6768C4.32913 18.3502 4.16607 17.9579 4.16663 17.5002V2.50016C4.16663 2.04183 4.32996 1.64933 4.65663 1.32266C4.98329 0.995998 5.37552 0.832942 5.83329 0.833498H14.1666C14.625 0.833498 15.0175 0.996831 15.3441 1.3235C15.6708 1.65016 15.8338 2.04239 15.8333 2.50016V17.5002C15.8333 17.9585 15.67 18.351 15.3433 18.6777C15.0166 19.0043 14.6244 19.1674 14.1666 19.1668H5.83329ZM5.83329 15.0002V17.5002H14.1666V15.0002H5.83329ZM5.83329 13.3335H14.1666V5.00016H5.83329V13.3335ZM5.83329 3.3335H14.1666V2.50016H5.83329V3.3335Z" fill="#404040"/>
</g>
<defs>
<clipPath id="clip0_1_82">
<rect width="20" height="20" fill="white"/>
</clipPath>
</defs>
</svg>
