<svg width="50" height="49" viewBox="0 0 50 49" fill="none" xmlns="http://www.w3.org/2000/svg">
<g clip-path="url(#clip0_1_152)">
<path d="M14.317 30.317C13.9487 29.9487 13.7645 29.4799 13.7645 28.9107C13.7645 28.3415 13.9487 27.8728 14.317 27.5045L23.5581 18.2634C23.7589 18.0625 23.9766 17.9205 24.211 17.8375C24.4453 17.7545 24.6964 17.7123 24.9643 17.7109C25.2322 17.7109 25.492 17.7612 25.7438 17.8616C25.9956 17.9621 26.2045 18.096 26.3706 18.2634L35.6116 27.5045C35.9799 27.8728 36.1641 28.3415 36.1641 28.9107C36.1641 29.4799 35.9799 29.9487 35.6116 30.317C35.2433 30.6853 34.7746 30.8694 34.2054 30.8694C33.6362 30.8694 33.1674 30.6853 32.7991 30.317L24.9643 22.4821L17.1295 30.317C16.7612 30.6853 16.2924 30.8694 15.7232 30.8694C15.154 30.8694 14.6853 30.6853 14.317 30.317Z" fill="#404040"/>
</g>
<defs>
<clipPath id="clip0_1_152">
<rect width="48.2143" height="48.2143" fill="white" transform="translate(0.857178 0.785645)"/>
</clipPath>
</defs>
</svg>
