<svg width="30" height="30" viewBox="0 0 30 30" fill="none" xmlns="http://www.w3.org/2000/svg">
<path d="M15 3C12.6266 3 10.3066 3.70379 8.33316 5.02236C6.35977 6.34094 4.8217 8.21508 3.91345 10.4078C3.0052 12.6005 2.76756 15.0133 3.23058 17.3411C3.6936 19.6689 4.83649 21.807 6.51472 23.4853C8.19295 25.1635 10.3311 26.3064 12.6589 26.7694C14.9867 27.2324 17.3995 26.9948 19.5922 26.0865C21.7849 25.1783 23.6591 23.6402 24.9776 21.6668C26.2962 19.6934 27 17.3734 27 15C26.9966 11.8184 25.7313 8.76814 23.4816 6.51843C21.2319 4.26872 18.1816 3.00336 15 3ZM8.77847 23.0192C9.44624 21.9749 10.3662 21.1154 11.4535 20.5201C12.5407 19.9247 13.7604 19.6127 15 19.6127C16.2396 19.6127 17.4593 19.9247 18.5466 20.5201C19.6338 21.1154 20.5538 21.9749 21.2215 23.0192C19.4427 24.4027 17.2535 25.1538 15 25.1538C12.7465 25.1538 10.5573 24.4027 8.77847 23.0192ZM11.3077 14.0769C11.3077 13.3467 11.5242 12.6328 11.93 12.0256C12.3357 11.4184 12.9123 10.9451 13.587 10.6657C14.2617 10.3862 15.0041 10.3131 15.7203 10.4556C16.4366 10.598 17.0945 10.9497 17.6109 11.4661C18.1272 11.9824 18.4789 12.6404 18.6214 13.3566C18.7638 14.0728 18.6907 14.8152 18.4113 15.4899C18.1318 16.1646 17.6585 16.7412 17.0513 17.147C16.4441 17.5527 15.7303 17.7692 15 17.7692C14.0207 17.7692 13.0816 17.3802 12.3891 16.6878C11.6967 15.9953 11.3077 15.0562 11.3077 14.0769ZM22.5877 21.7396C21.5582 20.2478 20.1106 19.0936 18.4269 18.4223C19.3313 17.71 19.9913 16.7335 20.315 15.6287C20.6387 14.5239 20.6101 13.3457 20.2332 12.2579C19.8562 11.1702 19.1497 10.2269 18.2118 9.55926C17.2739 8.89165 16.1512 8.5329 15 8.5329C13.8488 8.5329 12.7261 8.89165 11.7882 9.55926C10.8503 10.2269 10.1438 11.1702 9.76683 12.2579C9.38989 13.3457 9.36129 14.5239 9.68501 15.6287C10.0087 16.7335 10.6687 17.71 11.5731 18.4223C9.88941 19.0936 8.44181 20.2478 7.41231 21.7396C6.11143 20.2767 5.26116 18.469 4.9639 16.534C4.66664 14.5991 4.93506 12.6195 5.73683 10.8336C6.53861 9.04766 7.83955 7.53159 9.48301 6.46793C11.1265 5.40426 13.0424 4.83836 15 4.83836C16.9576 4.83836 18.8735 5.40426 20.517 6.46793C22.1605 7.53159 23.4614 9.04766 24.2632 10.8336C25.0649 12.6195 25.3334 14.5991 25.0361 16.534C24.7388 18.469 23.8886 20.2767 22.5877 21.7396Z" fill="#404040"/>
</svg>
